<mxfile host="app.diagrams.net" modified="2022-06-06T05:26:21.062Z" agent="5.0 (Windows NT 10.0; Win64; x64) AppleWebKit/537.36 (KHTML, like Gecko) Chrome/102.0.5005.63 Safari/537.36" etag="nPot1bbC8q1tDpbohRtW" version="19.0.0" type="github">
  <diagram id="mkuO4nHDyxmKRmoxtVL-" name="Page-1">
    <mxGraphModel dx="2062" dy="1114" grid="1" gridSize="10" guides="1" tooltips="1" connect="1" arrows="1" fold="1" page="1" pageScale="1" pageWidth="827" pageHeight="1169" math="0" shadow="0">
      <root>
        <mxCell id="0" />
        <mxCell id="1" parent="0" />
        <mxCell id="MH6E132Lfaj71ZYyzrsv-1" value="stack&lt;br&gt;&lt;br&gt;&lt;br&gt;&lt;br&gt;&lt;br&gt;&lt;br&gt;&lt;br&gt;" style="rounded=0;whiteSpace=wrap;html=1;" vertex="1" parent="1">
          <mxGeometry x="130" y="360" width="300" height="130" as="geometry" />
        </mxCell>
        <mxCell id="MH6E132Lfaj71ZYyzrsv-2" value="mWidth" style="rounded=0;whiteSpace=wrap;html=1;" vertex="1" parent="1">
          <mxGeometry x="150" y="405" width="60" height="45" as="geometry" />
        </mxCell>
        <mxCell id="MH6E132Lfaj71ZYyzrsv-4" value="mHeight" style="rounded=0;whiteSpace=wrap;html=1;" vertex="1" parent="1">
          <mxGeometry x="240" y="405" width="60" height="45" as="geometry" />
        </mxCell>
        <mxCell id="MH6E132Lfaj71ZYyzrsv-38" style="edgeStyle=orthogonalEdgeStyle;rounded=0;orthogonalLoop=1;jettySize=auto;html=1;entryX=0;entryY=0.5;entryDx=0;entryDy=0;" edge="1" parent="1" source="MH6E132Lfaj71ZYyzrsv-5" target="MH6E132Lfaj71ZYyzrsv-8">
          <mxGeometry relative="1" as="geometry" />
        </mxCell>
        <mxCell id="MH6E132Lfaj71ZYyzrsv-5" value="mCells" style="rounded=0;whiteSpace=wrap;html=1;" vertex="1" parent="1">
          <mxGeometry x="340" y="405" width="60" height="45" as="geometry" />
        </mxCell>
        <mxCell id="MH6E132Lfaj71ZYyzrsv-14" value="" style="edgeStyle=orthogonalEdgeStyle;rounded=0;orthogonalLoop=1;jettySize=auto;html=1;" edge="1" parent="1" source="MH6E132Lfaj71ZYyzrsv-8" target="MH6E132Lfaj71ZYyzrsv-13">
          <mxGeometry relative="1" as="geometry" />
        </mxCell>
        <mxCell id="MH6E132Lfaj71ZYyzrsv-8" value="" style="rounded=0;whiteSpace=wrap;html=1;" vertex="1" parent="1">
          <mxGeometry x="560" y="320" width="40" height="40" as="geometry" />
        </mxCell>
        <mxCell id="MH6E132Lfaj71ZYyzrsv-19" value="" style="edgeStyle=orthogonalEdgeStyle;rounded=0;orthogonalLoop=1;jettySize=auto;html=1;" edge="1" parent="1" source="MH6E132Lfaj71ZYyzrsv-9" target="MH6E132Lfaj71ZYyzrsv-18">
          <mxGeometry relative="1" as="geometry" />
        </mxCell>
        <mxCell id="MH6E132Lfaj71ZYyzrsv-9" value="" style="rounded=0;whiteSpace=wrap;html=1;" vertex="1" parent="1">
          <mxGeometry x="600" y="320" width="40" height="40" as="geometry" />
        </mxCell>
        <mxCell id="MH6E132Lfaj71ZYyzrsv-27" value="" style="edgeStyle=orthogonalEdgeStyle;rounded=0;orthogonalLoop=1;jettySize=auto;html=1;" edge="1" parent="1" source="MH6E132Lfaj71ZYyzrsv-10" target="MH6E132Lfaj71ZYyzrsv-26">
          <mxGeometry relative="1" as="geometry" />
        </mxCell>
        <mxCell id="MH6E132Lfaj71ZYyzrsv-10" value="" style="rounded=0;whiteSpace=wrap;html=1;" vertex="1" parent="1">
          <mxGeometry x="640" y="320" width="40" height="40" as="geometry" />
        </mxCell>
        <mxCell id="MH6E132Lfaj71ZYyzrsv-29" value="" style="edgeStyle=orthogonalEdgeStyle;rounded=0;orthogonalLoop=1;jettySize=auto;html=1;" edge="1" parent="1" source="MH6E132Lfaj71ZYyzrsv-11" target="MH6E132Lfaj71ZYyzrsv-28">
          <mxGeometry relative="1" as="geometry" />
        </mxCell>
        <mxCell id="MH6E132Lfaj71ZYyzrsv-11" value="" style="rounded=0;whiteSpace=wrap;html=1;" vertex="1" parent="1">
          <mxGeometry x="680" y="320" width="40" height="40" as="geometry" />
        </mxCell>
        <mxCell id="MH6E132Lfaj71ZYyzrsv-12" value="heap" style="text;html=1;strokeColor=none;fillColor=none;align=center;verticalAlign=middle;whiteSpace=wrap;rounded=0;" vertex="1" parent="1">
          <mxGeometry x="610" y="290" width="60" height="30" as="geometry" />
        </mxCell>
        <mxCell id="MH6E132Lfaj71ZYyzrsv-13" value="" style="rounded=0;whiteSpace=wrap;html=1;" vertex="1" parent="1">
          <mxGeometry x="540" y="420" width="40" height="40" as="geometry" />
        </mxCell>
        <mxCell id="MH6E132Lfaj71ZYyzrsv-18" value="" style="rounded=0;whiteSpace=wrap;html=1;" vertex="1" parent="1">
          <mxGeometry x="590" y="420" width="40" height="40" as="geometry" />
        </mxCell>
        <mxCell id="MH6E132Lfaj71ZYyzrsv-26" value="" style="rounded=0;whiteSpace=wrap;html=1;" vertex="1" parent="1">
          <mxGeometry x="640" y="420" width="40" height="40" as="geometry" />
        </mxCell>
        <mxCell id="MH6E132Lfaj71ZYyzrsv-28" value="" style="rounded=0;whiteSpace=wrap;html=1;" vertex="1" parent="1">
          <mxGeometry x="690" y="420" width="40" height="40" as="geometry" />
        </mxCell>
        <mxCell id="MH6E132Lfaj71ZYyzrsv-30" value="" style="rounded=0;whiteSpace=wrap;html=1;" vertex="1" parent="1">
          <mxGeometry x="540" y="460" width="40" height="40" as="geometry" />
        </mxCell>
        <mxCell id="MH6E132Lfaj71ZYyzrsv-31" value="" style="rounded=0;whiteSpace=wrap;html=1;" vertex="1" parent="1">
          <mxGeometry x="540" y="500" width="40" height="40" as="geometry" />
        </mxCell>
        <mxCell id="MH6E132Lfaj71ZYyzrsv-32" value="" style="rounded=0;whiteSpace=wrap;html=1;" vertex="1" parent="1">
          <mxGeometry x="590" y="460" width="40" height="40" as="geometry" />
        </mxCell>
        <mxCell id="MH6E132Lfaj71ZYyzrsv-33" value="" style="rounded=0;whiteSpace=wrap;html=1;" vertex="1" parent="1">
          <mxGeometry x="590" y="500" width="40" height="40" as="geometry" />
        </mxCell>
        <mxCell id="MH6E132Lfaj71ZYyzrsv-34" value="" style="rounded=0;whiteSpace=wrap;html=1;" vertex="1" parent="1">
          <mxGeometry x="640" y="460" width="40" height="40" as="geometry" />
        </mxCell>
        <mxCell id="MH6E132Lfaj71ZYyzrsv-35" value="" style="rounded=0;whiteSpace=wrap;html=1;" vertex="1" parent="1">
          <mxGeometry x="640" y="500" width="40" height="40" as="geometry" />
        </mxCell>
        <mxCell id="MH6E132Lfaj71ZYyzrsv-36" value="" style="rounded=0;whiteSpace=wrap;html=1;" vertex="1" parent="1">
          <mxGeometry x="690" y="460" width="40" height="40" as="geometry" />
        </mxCell>
        <mxCell id="MH6E132Lfaj71ZYyzrsv-37" value="" style="rounded=0;whiteSpace=wrap;html=1;" vertex="1" parent="1">
          <mxGeometry x="690" y="500" width="40" height="40" as="geometry" />
        </mxCell>
      </root>
    </mxGraphModel>
  </diagram>
</mxfile>
